<svg version="1.1" id="Layer_1" xmlns="http://www.w3.org/2000/svg" xmlns:xlink="http://www.w3.org/1999/xlink" x="0px" y="0px"
	 width="152.01px" height="382.6px" viewBox="0 0 152.01 382.6" enable-background="new 0 0 152.01 382.6" xml:space="preserve">
<polygon fill="#682516" points="44.2,382.599 9.64,322.62 0,134.35 38.92,149.68 "/>
<polygon fill="#682516" points="38.92,150.68 0,135.35 48.28,20.94 103.11,1 "/>
<polygon fill="#FFFFFF" points="63.27,23.34 53.41,26.5 47.27,41.03 56.77,38.66 "/>
<polygon fill="#FFFFFF" points="71.95,50.2 60.51,52.17 53.68,68.23 64.68,67.24 "/>
<polygon fill="#FFFFFF" points="86.6,15.87 74.27,19.82 67.37,36.03 79.26,33.07 "/>
<polygon fill="#A8A5A5" points="50.31,53.92 41.15,55.5 35.06,69.91 43.87,69.11 "/>
<polygon fill="#A8A5A5" points="57.45,84.19 46.89,84.21 40.12,100.13 50.25,101.06 "/>
<polygon fill="#FFFFFF" points="37.46,84.23 29,84.25 22.96,98.55 31.08,99.29 "/>
<polygon fill="#FFFFFF" points="43.09,117.84 33.39,115.96 26.69,131.73 35.96,134.55 "/>
<polygon fill="#FFFFFF" points="24.73,114.28 16.95,112.77 10.96,126.94 18.4,129.21 "/>
<polygon fill="none" points="38.92,149.68 0,134.35 48.28,19.94 103.11,0 "/>
<polygon fill="#BC3A26" points="103.11,0 152.01,140.56 139.34,346.72 44.2,382.599 38.92,149.68 "/>
<polygon fill="#FFFFFF" points="72.84,152.91 54.49,154.53 54.67,170.52 72.79,168.54 "/>
<polygon fill="#FFFFFF" points="106.2,179.49 89.85,181.61 89.62,196.22 105.79,193.81 "/>
<polygon fill="#FFFFFF" points="107.03,149.88 90.33,151.36 90.08,166.66 106.61,164.85 "/>
<polygon fill="#A8A5A5" points="72.75,183.82 54.84,186.13 55.01,201.37 72.71,198.74 "/>
<polygon fill="#A8A5A5" points="105.4,207.82 89.391,210.509 89.17,224.49 105.01,221.53 "/>
<polygon fill="#FFFFFF" points="72.67,213.32 55.18,216.27 55.34,230.81 72.64,227.58 "/>
<polygon fill="#FFFFFF" points="104.631,234.95 88.96,238.16 88.75,251.55 104.26,248.08 "/>
<polygon fill="#FFFFFF" points="72.6,241.52 55.5,245.03 55.65,258.94 72.56,255.16 "/>
<polygon fill="#FFFFFF" points="136.82,175.54 121.83,177.47 121.27,191.51 136.11,189.3 "/>
<polygon fill="#FFFFFF" points="138.28,147.12 123,148.47 122.41,163.13 137.54,161.48 "/>
<polygon fill="#A8A5A5" points="135.41,202.78 120.721,205.25 120.18,218.69 134.73,215.97 "/>
<polygon fill="#FFFFFF" points="134.07,228.9 119.65,231.86 119.131,244.759 133.41,241.58 "/>
<polygon fill="#FFFFFF" points="72.53,268.5 55.8,272.53 55.95,285.83 72.49,281.56 "/>
<polygon fill="#FFFFFF" points="103.189,285.89 88.141,290.02 87.939,302.32 102.85,297.98 "/>
<polygon fill="#A8A5A5" points="72.46,294.33 56.09,298.83 56.23,311.56 72.42,306.839 "/>
<polygon fill="#FFFFFF" points="72.39,319.089 56.37,324.02 56.51,336.22 72.36,331.089 "/>
<polygon fill="#FFFFFF" points="101.86,332.839 87.391,337.74 87.21,349.089 101.551,344.009 "/>
<polygon fill="#FFFFFF" points="72.33,342.849 56.64,348.16 56.77,359.86 72.3,354.36 "/>
<polygon fill="#FFFFFF" points="131.53,278.099 117.641,281.91 117.16,293.81 130.93,289.8 "/>
<polygon fill="#FFFFFF" points="132.77,253.99 118.62,257.4 118.131,269.78 132.15,266.16 "/>
<polygon fill="#A8A5A5" points="130.34,301.28 116.689,305.47 116.23,316.91 129.76,312.54 "/>
<polygon fill="#FFFFFF" points="129.189,323.589 115.78,328.13 115.34,339.13 128.631,334.429 "/>
<polygon fill="#A8A5A5" points="103.891,260.95 88.54,264.64 88.34,277.47 103.54,273.55 "/>
<polygon fill="#FFFFFF" points="102.51,309.83 87.75,314.37 87.57,326.179 102.18,321.45 "/>
<polygon fill="none" points="103.11,0 152.01,140.56 139.34,346.72 44.2,382.599 38.92,149.68 "/>
</svg>