<?xml version="1.0" encoding="utf-8"?>
<!-- Generator: Adobe Illustrator 14.0.0, SVG Export Plug-In . SVG Version: 6.00 Build 43363)  -->
<!DOCTYPE svg PUBLIC "-//W3C//DTD SVG 1.1//EN" "http://www.w3.org/Graphics/SVG/1.1/DTD/svg11.dtd">
<svg version="1.1" id="Layer_1" xmlns="http://www.w3.org/2000/svg" xmlns:xlink="http://www.w3.org/1999/xlink" x="0px" y="0px"
	 width="177.771px" height="193.625px" viewBox="0 0 177.771 193.625" enable-background="new 0 0 177.771 193.625"
	 xml:space="preserve">
<g>
</g>
<g>
	<path fill="#6C9931" d="M45.14,113.024c8.963-0.977,17.927-1.953,26.89-2.93C63.102,111.031,53.921,112.125,45.14,113.024"/>
	<path fill="#6A952F" d="M45.1,113.035c8.963-0.98,17.927-1.96,26.89-2.94C63.531,111.24,52.356,112.895,45.1,113.035"/>
	<path fill="#67922E" d="M44.75,113.094c8.97-0.979,17.94-1.96,26.91-2.939c-4.555,0.778-9.248,1.071-13.845,1.574
		C54.667,112.075,46.413,113.702,44.75,113.094"/>
	<path fill="#658E2D" d="M44.35,113.205c8.977-0.983,17.954-1.967,26.93-2.95c-4.446,1.09-9.369,1.143-13.925,1.645
		C55.041,112.155,44.613,112.888,44.35,113.205"/>
	<path fill="#628B2C" d="M43.88,113.384c8.983-0.99,17.966-1.979,26.95-2.97c-4.132,1.547-9.635,1.248-14,1.73
		c-4.06,0.448-8.119,0.896-12.179,1.345C43.851,113.578,42.98,113.939,43.88,113.384"/>
	<path fill="#60872B" d="M43.34,113.634c8.993-0.993,17.987-1.986,26.98-2.979c-3.961,1.735-9.794,1.349-14.07,1.825
		c-3.564,0.397-7.128,0.795-10.692,1.191C44.749,113.762,42.171,114.598,43.34,113.634"/>
	<path fill="#5D842A" d="M42.75,113.985c9-1.003,18-2.007,27-3.01c-2.954,1.766-8.171,1.322-11.532,1.701
		c-5.403,0.609-10.805,1.219-16.208,1.828C42.25,114.322,42.514,114.17,42.75,113.985"/>
	<path fill="#5B8029" d="M42.01,114.504c9.013-1.017,18.027-2.033,27.04-3.05c-2.431,2.543-8.899,1.893-12.096,2.266
		c-5.415,0.631-10.83,1.263-16.244,1.894C41.122,115.235,41.547,114.821,42.01,114.504"/>
	<path fill="#587D28" d="M40.71,115.614c9.033-1.053,18.067-2.106,27.1-3.159c-2.273,2.786-9.032,2.116-12.224,2.5
		c-5.428,0.653-10.857,1.307-16.286,1.96C39.764,116.494,40.206,115.984,40.71,115.614"/>
	<path fill="#5B8029" d="M39.3,116.915c9.057-1.09,18.113-2.18,27.17-3.27c-2.413,2.608-8.979,1.992-12.188,2.39
		c-5.44,0.674-10.881,1.347-16.322,2.021C38.417,117.701,38.828,117.242,39.3,116.915"/>
	<path fill="#5D842A" d="M37.96,118.055c9.077-1.124,18.153-2.247,27.23-3.371c-2.979,1.856-8.283,1.463-11.694,1.891
		c-5.448,0.684-10.897,1.366-16.346,2.05C37.432,118.45,37.696,118.255,37.96,118.055"/>
	<path fill="#60872B" d="M37.15,118.625c9.09-1.14,18.18-2.28,27.27-3.42c-2.918,1.359-7.059,1.166-10.229,1.568
		c-5.867,0.743-11.734,1.486-17.602,2.229C36.43,119.023,37.032,118.715,37.15,118.625"/>
	<path fill="#628B2C" d="M36.5,119.014c9.1-1.153,18.2-2.306,27.3-3.459c-4.269,1.577-9.75,1.437-14.25,2.01
		c-3.606,0.459-7.212,0.919-10.818,1.378C38.062,119.029,35.177,119.88,36.5,119.014"/>
	<path fill="#658E2D" d="M35.89,119.305c9.106-1.16,18.213-2.32,27.32-3.48c-4.501,1.279-9.609,1.356-14.245,1.949
		c-3.61,0.462-7.22,0.924-10.831,1.386C37.603,119.228,34.485,120.018,35.89,119.305"/>
	<path fill="#67922E" d="M35.29,119.524c9.117-1.167,18.233-2.333,27.35-3.5c-4.641,1.032-9.556,1.301-14.27,1.905
		c-3.614,0.463-7.229,0.927-10.842,1.39C37.118,119.372,33.744,120.058,35.29,119.524"/>
	<path fill="#6A952F" d="M34.68,119.684c9.126-1.17,18.253-2.34,27.38-3.51c-0.009,0.002-0.018,0.008-0.03,0.01
		c-9.428,1.561-19,2.475-28.48,3.69C33.926,119.824,34.312,119.747,34.68,119.684"/>
	<path fill="none" d="M45.14,113.024c8.963-0.977,17.927-1.953,26.89-2.93c-3.122,0.555-5.021,3.521-7.6,5.11
		c-1.895,1.169-4.149,1.24-6.293,1.516c-8.196,1.052-16.391,2.103-24.586,3.154C38.468,119.363,40.522,113.924,45.14,113.024"/>
	<path fill="#493A17" d="M45.14,113.024c9.069-0.988,18.137-2.118,27.22-2.949C63.292,111.063,54.224,112.203,45.14,113.024"/>
	<path fill="none" d="M72.03,110.094c-7.363,1.169-18.28,2.151-26.89,2.93C54.104,112.047,63.067,111.071,72.03,110.094"/>
	<path fill="#493A17" d="M45.49,113.004c8.987-0.979,18.25-2.783,27.28-2.9C63.815,111.084,54.485,113.008,45.49,113.004"/>
	<path fill="none" d="M72.77,110.104c-8.955,0.98-18.285,2.904-27.28,2.9C54.477,112.025,63.741,110.221,72.77,110.104"/>
	<path fill="#517224" d="M40.5,20.475c10.07,2.187,20.213,4.156,30.22,6.62C60.646,24.905,50.533,22.849,40.5,20.475"/>
	<path fill="none" d="M40.5,20.475c10.07,2.187,20.213,4.156,30.22,6.62C60.646,24.905,50.533,22.849,40.5,20.475"/>
	<path fill="#493A17" d="M45.92,113.044c6.491-0.711,12.982-1.422,19.474-2.133c2.427-0.266,4.855-0.531,7.282-0.798
		c2.542-0.277,7.122,9.11,8.472,10.999c3.426,4.792,6.854,9.583,10.277,14.376c2.174,3.044,6.712,12.442,10.725,12.035
		c-6.681,1.946-13.362,3.892-20.043,5.838c-6.47,1.885-7.343,1.231-11.45-4.798c-3.5-5.139-7.005-10.273-10.502-15.414
		C55.988,127.029,51.868,117.206,45.92,113.044"/>
	<path fill="none" d="M101.49,147.604c1.684-0.018-1.812,0.64-2.293,0.779c-4.501,1.312-9.002,2.622-13.504,3.934
		c-6.535,1.903-9.381,4.552-13.702-1.793c-3.71-5.448-7.427-10.893-11.135-16.342c-4.359-6.406-8.736-16.8-14.936-21.138
		c6.064-0.664,12.127-1.328,18.191-1.992c2.765-0.303,5.529-0.605,8.293-0.908c2.641-0.289,6.665,7.843,7.922,9.762
		c2.877,4.392,6.105,8.591,9.157,12.864C91.731,135.918,97.505,147.327,101.49,147.604"/>
	<path fill="#517224" d="M78.18,0.884c6.491,2.138,12.981,4.276,19.471,6.414c2.485,0.818,5.117,1.491,7.505,2.582
		c2.919,1.333,5.404,3.502,7.274,6.095c1.377,1.914,2.747,7.661,5.229,8.35c-6.369-1.78-12.739-3.56-19.108-5.339
		c-2.223-0.621-5.688-0.848-6.861-3.151C88.299,9.48,85.611,3.343,78.18,0.884"/>
	<path fill="none" d="M78.18,0.884c6.491,2.138,12.981,4.276,19.471,6.414c2.485,0.818,5.117,1.491,7.505,2.582
		c2.919,1.333,5.404,3.502,7.274,6.095c1.377,1.914,2.747,7.661,5.229,8.35c-6.369-1.78-12.739-3.56-19.108-5.339
		c-2.223-0.621-5.688-0.848-6.861-3.151C88.299,9.48,85.611,3.343,78.18,0.884"/>
	<path fill="#604C1E" d="M45.49,113.004c5.354,1.914,10.281,13.705,13.663,18.675c3.831,5.63,7.67,11.256,11.503,16.885
		c1.929,2.833,4.93,8.947,8.544,4.681c2.103-2.417,3.798-5.253,5.646-7.87c1.794-2.54,3.588-5.081,5.383-7.62
		c0.911-1.288,1.823-2.576,2.734-3.864c1.614-2.283,6.478-2.782,9.047-4.065c-6.575,9.135-13.635,18.444-16.471,29.539
		c-2.839,11.094,1.649,23.946,5.52,34.261c-9.04-1.314-18.08-2.627-27.12-3.94c5.402-18.357,4.178-33.627-5.337-50.173
		c-4.121-7.166-9.124-13.74-13.312-20.831C44.126,116.707,41.839,113.004,45.49,113.004"/>
	<path fill="#4C3C18" d="M102.011,129.825c7.807-1.653,15.613-3.308,23.42-4.961c-1.476,1.986-2.854,4.198-4.49,6.051
		c-1.964,2.67-3.294,2.508-6.512,3.297c-6.27,1.538-12.539,3.075-18.809,4.613C97.697,135.788,99.844,132.798,102.011,129.825"/>
	<path fill="#493A17" d="M95.62,138.825c7.95-1.95,15.899-3.899,23.85-5.85c-5.989,8.514-11.071,17.771-9.964,28.49
		c0.475,4.598,1.627,9.111,3.015,13.51c0.729,2.285,4.021,6.566,1.334,7.841c-7.599,3.603-15.196,7.206-22.795,10.809
		c-3.556-9.478-7.026-20.112-6.157-30.37C85.652,154.405,90.732,145.999,95.62,138.825"/>
	<path fill="none" d="M110,151.524c-2.025,7.625,0.213,16.136,2.521,23.451c2.132,6.677,3.947,6.602-1.899,9.374
		c-6.521,3.092-13.041,6.184-19.562,9.275c-3.556-9.478-7.026-20.112-6.157-30.37c0.881-10.398,7.504-19.997,13.376-28.245
		c1.542-2.167,2.537-4.932,5.225-5.501c2.513-0.532,5.024-1.064,7.537-1.596c4.797-1.017,9.594-2.033,14.391-3.049
		C119.299,133.077,112.731,141.458,110,151.524"/>
	<path fill="#6C9931" d="M126.63,104.424c7.22-0.797,14.44-1.593,21.66-2.39C141.104,102.792,133.672,103.695,126.63,104.424"/>
	<path fill="#6A952F" d="M126.591,104.434c7.22-0.8,14.439-1.6,21.659-2.399C141.476,102.891,132.132,104.272,126.591,104.434"/>
	<path fill="#67922E" d="M126.24,104.485c7.227-0.8,14.453-1.601,21.68-2.4C141.486,103.115,131.614,104.978,126.24,104.485"/>
	<path fill="#658E2D" d="M125.94,104.565c7.236-0.804,14.473-1.606,21.709-2.41C141.237,103.289,131.452,105.062,125.94,104.565"/>
	<path fill="#628B2C" d="M125.681,104.655c7.243-0.807,14.486-1.613,21.729-2.42C141.115,103.446,131.147,105.248,125.681,104.655"
		/>
	<path fill="#60872B" d="M125.44,104.754c7.25-0.81,14.5-1.62,21.75-2.43C141.279,103.613,130.485,105.643,125.44,104.754"/>
	<path fill="#5D842A" d="M125.2,104.875c7.257-0.813,14.513-1.627,21.77-2.44c-3.529,0.871-7.476,0.95-11.109,1.36
		C133.03,104.114,127.127,105.376,125.2,104.875"/>
	<path fill="#5B8029" d="M124.97,105.024c7.26-0.819,14.521-1.64,21.78-2.459c-3.419,1.021-7.541,0.999-11.125,1.404
		C133.031,104.263,126.532,105.68,124.97,105.024"/>
	<path fill="#587D28" d="M124.72,105.205c7.271-0.823,14.54-1.646,21.811-2.47c-3.327,1.152-7.624,1.05-11.165,1.454
		C133.091,104.449,125.793,105.987,124.72,105.205"/>
	<path fill="#567927" d="M124.45,105.434c7.276-0.83,14.554-1.66,21.83-2.49C143.52,104.167,125.044,106.513,124.45,105.434"/>
	<path fill="#537625" d="M124.149,105.754c7.283-0.843,14.567-1.687,21.851-2.529c-1.404,2.174-5.484,1.66-7.803,1.941
		c-4.992,0.606-9.985,1.212-14.978,1.818C123.502,106.564,123.805,106.123,124.149,105.754"/>
	<path fill="#517224" d="M123.22,106.985c7.304-0.887,14.606-1.773,21.91-2.66c-1.463,2.055-2.849,7.657-5.485,8.082
		c-2.318,0.374-4.638,0.747-6.957,1.121c-4.813,0.775-9.625,1.551-14.438,2.326C120.167,113.043,121.277,109.778,123.22,106.985"/>
	<path fill="#537625" d="M118.25,115.854c7.427-1.196,14.854-2.394,22.28-3.59c-4.833,6.56-17.438,5.753-25.051,7.09
		C116.457,118.232,117.393,117.071,118.25,115.854"/>
	<path fill="#567927" d="M115.479,119.354c7.493-1.316,14.987-2.633,22.48-3.949c-5.602,6.178-17.703,5.693-25.59,7.18
		C113.455,121.555,114.484,120.47,115.479,119.354"/>
	<path fill="#587D28" d="M112.37,122.584c7.566-1.427,15.134-2.853,22.7-4.279c-6.075,5.521-17.843,5.29-25.681,6.84
		C110.419,124.334,111.414,123.48,112.37,122.584"/>
	<path fill="#5B8029" d="M109.39,125.145c7.637-1.511,15.273-3.021,22.91-4.531c-6.431,5.113-17.981,5.041-25.85,6.65
		C107.459,126.599,108.44,125.892,109.39,125.145"/>
	<path fill="#5D842A" d="M106.45,127.264c7.707-1.576,15.413-3.153,23.12-4.729c-6.752,4.797-18.137,4.852-26.08,6.521
		C104.499,128.497,105.487,127.899,106.45,127.264"/>
	<path fill="#60872B" d="M103.49,129.055c7.773-1.634,15.546-3.267,23.319-4.9c-7.415,4.311-18.062,4.639-26.35,6.41
		C101.487,130.096,102.498,129.592,103.49,129.055"/>
	<path fill="#628B2C" d="M100.46,130.565c7.844-1.677,15.687-3.354,23.53-5.03c-8.056,3.718-18.04,4.414-26.66,6.28
		C98.389,131.438,99.433,131.021,100.46,130.565"/>
	<path fill="#658E2D" d="M97.33,131.815c7.913-1.714,15.827-3.427,23.74-5.141c-8.598,3.071-18.109,4.211-27.011,6.15
		C95.162,132.528,96.253,132.191,97.33,131.815"/>
	<path fill="#67922E" d="M94.06,132.825c7.987-1.74,15.974-3.48,23.961-5.221c-8.479,2.142-17.114,3.768-25.66,5.631
		C92.93,133.108,93.493,132.96,94.06,132.825"/>
	<path fill="none" d="M126.63,104.424c7.22-0.797,14.44-1.593,21.66-2.39c-4.357,0.426-7.085,9.626-9.654,12.604
		c-5.772,6.692-13.358,11.162-21.896,13.285c-8.061,2.004-16.264,3.541-24.38,5.311c8.421-1.845,16.148-6.374,22.02-12.67
		c2.751-2.928,4.784-6.061,6.6-9.621C122.168,108.596,123.618,104.82,126.63,104.424"/>
	<path fill="#517224" d="M113.16,15.444c7.58,2.39,15.161,4.779,22.741,7.169c6.811,2.147,12.104,7.96,13.927,14.826
		c1.073,4.042-3.613,16.216,2.763,17.065c-6.705-1.082-15.061-1.031-21.381-3.45c-7.033-1.072-1.873-12.731-2.57-16.91
		C127.289,25.764,121.396,18.031,113.16,15.444"/>
	<path fill="none" d="M113.16,15.444c7.58,2.39,15.161,4.779,22.741,7.169c6.811,2.147,12.104,7.96,13.927,14.826
		c1.073,4.042-3.613,16.216,2.763,17.065c-6.705-1.082-15.061-1.031-21.381-3.45c-7.033-1.072-1.873-12.731-2.57-16.91
		C127.289,25.764,121.396,18.031,113.16,15.444"/>
	<path fill="#517224" d="M132.97,50.104c3.831,0.642,20.004,1.271,21.26,4.25C150.53,53.749,133.951,53.022,132.97,50.104"/>
	<path fill="none" d="M132.97,50.104c3.831,0.642,20.004,1.271,21.26,4.25C150.53,53.749,133.951,53.022,132.97,50.104"/>
	<path fill="#6A9530" d="M132.899,48.044c0.176,0.667,0.24,1.386,0.07,2.06C132.944,49.418,132.92,48.731,132.899,48.044"/>
	<path fill="#517224" d="M132.899,48.044c4.421,0.79,8.842,1.58,13.264,2.371c1.819,0.325,9.181,0.139,8.047,3.25
		c-4.417-0.74-8.834-1.48-13.251-2.221c-2.358-0.396-4.718-0.791-7.076-1.187C132.464,50.02,133.244,49.355,132.899,48.044"/>
	<path fill="none" d="M132.899,48.044c4.421,0.79,8.842,1.58,13.264,2.371c1.819,0.325,9.181,0.139,8.047,3.25
		c-4.417-0.74-8.834-1.48-13.251-2.221c-2.358-0.396-4.718-0.791-7.076-1.187C132.464,50.02,133.244,49.355,132.899,48.044"/>
	<path fill="#517224" d="M139.771,50.785c6.061,1.034,12.121,2.068,18.182,3.102c11.176,1.907,18.405,10.227,19.683,21.578
		c0.407,3.617,0.109,17.19-5.422,17.575c-6.12,0.425-12.241,0.85-18.362,1.275C163.618,80.637,158.382,53.971,139.771,50.785"/>
	<path fill="#537625" d="M153.851,94.314c6.479-0.45,12.96-0.9,19.439-1.35c-1.301,2.757-3.782,2.325-6.46,2.545
		c-4.97,0.408-9.94,0.816-14.91,1.225C152.604,95.968,153.154,95.06,153.851,94.314"/>
	<path fill="#567927" d="M151.92,96.734c6.533-0.537,13.067-1.073,19.601-1.61c-1.408,2.136-3.955,1.712-6.244,1.92
		c-5.005,0.457-10.011,0.914-15.016,1.37C150.832,97.897,151.321,97.207,151.92,96.734"/>
	<path fill="#587D28" d="M150.261,98.415c6.58-0.6,13.159-1.2,19.739-1.8c-1.522,1.792-4.041,1.446-6.195,1.658
		c-5.038,0.494-10.076,0.988-15.114,1.482C149.224,99.339,149.705,98.791,150.261,98.415"/>
	<path fill="#5B8029" d="M148.69,99.754c6.623-0.649,13.246-1.3,19.869-1.949c-2.039,1.961-6.121,1.466-8.702,1.731
		c-4.232,0.436-8.465,0.872-12.697,1.308C147.674,100.501,148.156,100.062,148.69,99.754"/>
	<path fill="#5D842A" d="M147.16,100.844c6.667-0.687,13.333-1.373,20-2.06c-2.244,1.746-6.12,1.344-8.777,1.629
		c-4.257,0.457-8.515,0.914-12.772,1.371C146.136,101.497,146.628,101.111,147.16,100.844"/>
	<path fill="#60872B" d="M145.61,101.785c6.706-0.72,13.413-1.44,20.119-2.16c-2.418,1.563-6.12,1.247-8.856,1.551
		c-4.287,0.477-8.575,0.952-12.862,1.429C144.552,102.353,145.065,102.019,145.61,101.785"/>
	<path fill="#628B2C" d="M144.011,102.604c6.753-0.75,13.507-1.5,20.26-2.25c-5.906,3.032-15.406,2.207-21.95,2.951
		C142.893,103.096,143.439,102.808,144.011,102.604"/>
	<path fill="#658E2D" d="M142.32,103.305c6.8-0.773,13.6-1.547,20.399-2.32c-6.502,2.646-15.28,2.122-22.22,2.93
		C141.113,103.733,141.709,103.486,142.32,103.305"/>
	<path fill="#67922E" d="M140.5,103.915c6.85-0.797,13.7-1.594,20.55-2.391c-7.098,2.108-15.226,2.021-22.56,2.881
		C139.165,104.259,139.827,104.065,140.5,103.915"/>
	<path fill="#6A952F" d="M138.49,104.405c6.903-0.81,13.807-1.62,20.71-2.43c-7.556,1.389-15.333,1.892-22.96,2.789
		C136.996,104.673,137.739,104.524,138.49,104.405"/>
	<path fill="none" d="M139.771,50.785c6.344,1.082,12.687,2.165,19.03,3.247c12.457,2.125,19.66,13.853,18.97,26.133
		c-1.285,22.771-24.591,22.605-41.53,24.6C163.229,101.61,167.563,55.543,139.771,50.785"/>
	<path fill="#6A9530" d="M134.88,50.614c20.73-1.932,29.106,26.722,20.26,41.71c-4.687,7.912-12.92,12.599-22.109,12.64
		c-3.826-0.033-7.188-1.776-9.764,1.942c-3.929,5.671-6.155,11.368-11.431,16.167c-6.644,6.044-15.071,9.953-24.016,10.881
		c-15.083,1.563-29.794-5.929-38.7-17.96c-5.392-7.638-9.687,3.245-16.09,3.939c-7.802,0.593-14.378-4.741-17.53-11.55
		c-1.359-2.936-2.133-6.077-2.65-9.26c-0.71-4.357-5.169-6.569-7.297-10.28C1.146,81.16,1.317,70.908,5.475,63.157
		c2.048-3.818,5.225-7.12,9.335-8.672c4.466-1.699,5.875-2.397,5.56-7.64c-0.481-7.926,0.476-14.475,6.04-20.72
		c2.535-2.845,5.892-5.301,9.73-5.93c3.721-0.639,7.195,1.858,10.88,1.25c4.872-0.773,6.997-10.488,10.075-13.947
		c3.37-3.786,7.894-6.641,12.976-7.333c6.265-0.853,12.332,1.653,16.41,6.43c2.345,2.767,4.668,12.333,9.291,10.72
		c4.803-1.448,8.532-3.127,13.709-2.64c7.202,0.769,13.428,5.726,16.701,12.05c3.405,6.523,1.814,11.638,1.399,18.52
		c-0.154,2.222,4.081,8.798,5.39,4.86c0.029,0.25,0.01,0.518,0.021,0.77C133.588,50.769,134.271,50.592,134.88,50.614"/>
</g>
</svg>