<svg version="1.1" id="Layer_1" xmlns="http://www.w3.org/2000/svg" xmlns:xlink="http://www.w3.org/1999/xlink" x="0px" y="0px"
	 width="152.04px" height="227.81px" viewBox="0 0 152.04 227.81" enable-background="new 0 0 152.04 227.81" xml:space="preserve">
<polygon fill="#0B2746" points="39.52,227.81 9.32,185.41 -0.03,0.48 33.53,2.02 "/>
<polygon fill="#0B2746" points="33.53,2.02 -0.03,0.48 100.69,0 152.04,1.2 "/>
<polygon fill="#1F3C71" points="152.04,1.2 140.53,198.351 39.52,227.81 33.53,2.02 "/>
<polygon fill="#FFFFFF" points="82.37,18.37 50.81,19.29 51.22,48.11 82.13,46.07 "/>
<polygon fill="#FFFFFF" points="135.94,67.2 109.93,69.84 109.2,94.54 134.77,91.07 "/>
<polygon fill="#FFFFFF" points="138.42,16.74 111.489,17.52 110.7,44.18 137.159,42.43 "/>
<polygon fill="#A8A5A5" points="81.899,72.68 51.62,75.76 52,102.29 81.68,98.27 "/>
<polygon fill="#A8A5A5" points="133.64,114.1 108.499,118.33 107.819,141.271 132.54,136.33 "/>
<polygon fill="#FFFFFF" points="81.47,122.88 52.36,127.78 52.71,152.28 81.27,146.58 "/>
<polygon fill="#FFFFFF" points="131.489,157.81 107.159,163.399 106.53,184.771 130.47,178.56 "/>
<polygon fill="#FFFFFF" points="81.069,169.41 53.05,175.851 53.38,198.56 80.89,191.42 "/>
<polygon fill="none" points="152.04,1.2 140.53,198.351 39.52,227.81 33.53,2.02 "/>
</svg>