<?xml version="1.0" encoding="utf-8"?>
<!-- Generator: Adobe Illustrator 14.0.0, SVG Export Plug-In . SVG Version: 6.00 Build 43363)  -->
<!DOCTYPE svg PUBLIC "-//W3C//DTD SVG 1.1//EN" "http://www.w3.org/Graphics/SVG/1.1/DTD/svg11.dtd">
<svg version="1.1" id="Layer_1" xmlns="http://www.w3.org/2000/svg" xmlns:xlink="http://www.w3.org/1999/xlink" x="0px" y="0px"
	 width="213.64px" height="358.94px" viewBox="0 0 213.64 358.94" enable-background="new 0 0 213.64 358.94" xml:space="preserve">
<polygon fill="#184D32" points="0,266.29 79.54,209.301 114.39,213.471 46.55,275.37 "/>
<polygon fill="#184D32" points="126.34,290.939 171.659,220.34 213.64,225.37 187.59,302.88 "/>
<polygon fill="#167246" points="187.59,302.88 213.64,225.37 211.909,264.471 185.93,358.939 "/>
<polygon fill="#167346" points="124.521,105.48 173.96,95.55 171.659,220.34 126.34,290.939 "/>
<polygon fill="#FFFFFF" points="170.39,130.18 170.771,107.65 168.909,108.25 168.55,131.22 "/>
<polygon fill="#FFFFFF" points="165.989,177.32 166.31,155.1 164.34,156.68 164.04,179.31 "/>
<polygon fill="#FFFFFF" points="169.67,173.55 170.021,152.14 168.2,153.59 167.86,175.4 "/>
<polygon fill="#A8A5A5" points="166.64,132.3 166.979,108.87 164.97,109.53 164.649,133.43 "/>
<polygon fill="#A8A5A5" points="162.01,181.391 162.29,158.32 160.149,160.02 159.899,183.561 "/>
<polygon fill="#FFFFFF" points="162.58,134.6 162.88,110.21 160.69,110.92 160.42,135.82 "/>
<polygon fill="#FFFFFF" points="157.69,185.82 157.92,161.81 155.59,163.67 155.39,188.17 "/>
<polygon fill="#FFFFFF" points="158.159,137.1 158.399,111.66 156.021,112.43 155.8,138.44 "/>
<polygon fill="#FFFFFF" points="165.37,220.04 165.67,198.95 163.739,201.35 163.46,222.811 "/>
<polygon fill="#FFFFFF" points="168.979,214.79 169.319,194.42 167.53,196.641 167.21,217.36 "/>
<polygon fill="#A8A5A5" points="161.47,225.7 161.739,203.84 159.649,206.439 159.399,228.71 "/>
<polygon fill="#FFFFFF" points="157.25,231.84 157.47,209.15 155.19,211.971 155,235.11 "/>
<polygon fill="#FFFFFF" points="153.34,139.83 153.521,113.24 150.899,114.1 150.75,141.29 "/>
<polygon fill="#FFFFFF" points="147.851,195.9 147.94,169.78 145.149,172.01 145.09,198.721 "/>
<polygon fill="#A8A5A5" points="148.05,142.82 148.149,114.99 145.26,115.92 145.21,144.43 "/>
<polygon fill="#FFFFFF" points="142.22,146.12 142.229,116.91 139.04,117.94 139.08,147.9 "/>
<polygon fill="#FFFFFF" points="135.979,208.061 135.88,179.41 132.46,182.15 132.62,211.5 "/>
<polygon fill="#FFFFFF" points="135.78,149.76 135.67,119.04 132.12,120.19 132.29,151.74 "/>
<polygon fill="#FFFFFF" points="147.659,245.79 147.75,221.221 145.04,224.59 144.989,249.68 "/>
<polygon fill="#FFFFFF" points="152.659,238.51 152.819,214.92 150.34,218 150.22,242.07 "/>
<polygon fill="#A8A5A5" points="142.18,253.75 142.19,228.13 139.21,231.84 139.25,258.02 "/>
<polygon fill="#FFFFFF" points="136.17,262.5 136.069,235.73 132.78,239.83 132.93,267.21 "/>
<polygon fill="#A8A5A5" points="152.989,190.63 153.159,165.61 150.61,167.65 150.479,193.21 "/>
<polygon fill="#FFFFFF" points="142.2,201.68 142.21,174.36 139.13,176.82 139.17,204.79 "/>
<polygon fill="none" points="124.521,105.48 173.96,95.55 171.659,220.34 126.34,290.939 "/>
<polygon fill="#185637" points="74.57,0 142.3,27.85 173.96,95.55 124.521,105.48 "/>
<polygon fill="#184D32" points="74.57,0 124.521,105.48 126.34,290.939 187.59,302.88 185.93,358.939 4.25,313.93 0,266.29 
	46.55,275.37 36.25,104.45 "/>
<polygon fill="#FFFFFF" points="60.17,108.53 47.09,108.32 47.92,123.73 60.9,124.14 "/>
<polygon fill="#FFFFFF" points="88.46,140.79 74.85,140.13 75.45,155.4 88.94,156.27 "/>
<polygon fill="#FFFFFF" points="87.47,108.96 73.63,108.74 74.24,124.57 87.97,125.02 "/>
<polygon fill="#A8A5A5" points="61.62,139.49 48.74,138.86 49.55,153.74 62.32,154.56 "/>
<polygon fill="#A8A5A5" points="89.41,171.47 76.03,170.41 76.6,185.15 89.88,186.41 "/>
<polygon fill="#FFFFFF" points="63.01,169.37 50.34,168.36 51.12,182.721 63.69,183.92 "/>
<polygon fill="#FFFFFF" points="90.33,201.08 77.17,199.63 77.72,213.87 90.78,215.5 "/>
<polygon fill="#FFFFFF" points="64.36,198.221 51.88,196.85 52.64,210.74 65.02,212.29 "/>
<polygon fill="#FFFFFF" points="116.87,142.16 102.46,141.46 102.82,157.16 117.101,158.08 "/>
<polygon fill="#FFFFFF" points="116.399,109.41 101.72,109.18 102.09,125.47 116.63,125.94 "/>
<polygon fill="#A8A5A5" points="117.33,173.7 103.17,172.57 103.52,187.7 117.55,189.04 "/>
<polygon fill="#FFFFFF" points="117.771,204.1 103.86,202.57 104.19,217.18 117.979,218.9 "/>
<polygon fill="#FFFFFF" points="65.66,226.11 53.38,224.4 54.1,237.83 66.29,239.7 "/>
<polygon fill="#FFFFFF" points="92.08,257.28 79.33,255.15 79.85,268.45 92.49,270.74 "/>
<polygon fill="#A8A5A5" points="66.92,253.07 54.82,251.04 55.52,264.04 67.53,266.221 "/>
<polygon fill="#FFFFFF" points="68.14,279.15 56.21,276.83 56.9,289.42 68.73,291.88 "/>
<polygon fill="#FFFFFF" points="93.7,309.78 81.35,307.061 81.84,319.51 94.1,322.38 "/>
<polygon fill="#FFFFFF" points="69.31,304.4 57.57,301.801 58.23,314 69.89,316.721 "/>
<polygon fill="#FFFFFF" points="118.601,261.721 105.16,259.471 105.47,273.09 118.8,275.51 "/>
<polygon fill="#FFFFFF" points="118.19,233.43 104.52,231.52 104.84,245.62 118.399,247.7 "/>
<polygon fill="#A8A5A5" points="118.989,289.051 105.77,286.48 106.08,299.641 119.19,302.37 "/>
<polygon fill="#FFFFFF" points="119.38,315.45 106.37,312.58 106.66,325.311 119.56,328.33 "/>
<polygon fill="#A8A5A5" points="91.22,229.67 78.27,227.86 78.8,241.62 91.65,243.59 "/>
<polygon fill="#FFFFFF" points="92.9,283.971 80.36,281.53 80.86,294.4 93.31,296.99 "/>
<polygon fill="none" points="74.57,0 124.521,105.48 126.34,290.939 187.59,302.88 185.93,358.939 4.25,313.93 0,266.29 
	46.55,275.37 36.25,104.45 "/>
</svg>