<svg version="1.1" id="Layer_1" xmlns="http://www.w3.org/2000/svg" xmlns:xlink="http://www.w3.org/1999/xlink" x="0px" y="0px"
	 width="125.942px" height="76px" viewBox="0 0 125.942 76" enable-background="new 0 0 125.942 76" xml:space="preserve">
<linearGradient id="SVGID_1_" gradientUnits="userSpaceOnUse" x1="62.9619" y1="37.9976" x2="63.1498" y2="101.0731">
	<stop  offset="0" style="stop-color:#F5F5F5"/>
	<stop  offset="0.0875" style="stop-color:#ECECEC"/>
	<stop  offset="0.2302" style="stop-color:#D3D3D3"/>
	<stop  offset="0.4106" style="stop-color:#ACACAC"/>
	<stop  offset="0.6214" style="stop-color:#747474"/>
	<stop  offset="0.855" style="stop-color:#2F2F2F"/>
	<stop  offset="1" style="stop-color:#000000"/>
</linearGradient>
<path fill-rule="evenodd" clip-rule="evenodd" fill="url(#SVGID_1_)" d="M36.789,16.367c-2.698-0.754-5.575-1.167-8.561-1.167
	C12.637,15.2,0,26.377,0,40.172c0,13.794,12.637,24.97,28.229,24.97c1.422,0,2.823-0.09,4.186-0.271
	C36.893,71.581,44.53,76,53.199,76c8.409,0,15.853-4.157,20.38-10.531c4.43,1.188,9.277,1.847,14.363,1.847
	c20.987,0,38-11.179,38-24.973c0-10.764-10.362-19.938-24.89-23.446C97.399,8.039,84.165,0,68.399,0
	C53.884,0,41.518,6.818,36.789,16.367z"/>
</svg>